<mxfile host="app.diagrams.net" modified="2024-04-30T02:57:14.424Z" agent="Mozilla/5.0 (Windows NT 10.0; Win64; x64; rv:125.0) Gecko/20100101 Firefox/125.0" etag="gzkKjHUeU2K_S7KGNJH9" version="24.3.0" type="github" pages="2">
  <diagram name="archi" id="6VvenvqKkfI1LP6hs6xU">
    <mxGraphModel dx="3240" dy="1243" grid="1" gridSize="10" guides="1" tooltips="1" connect="1" arrows="1" fold="1" page="1" pageScale="1" pageWidth="850" pageHeight="1100" math="0" shadow="0">
      <root>
        <mxCell id="0" />
        <mxCell id="1" parent="0" />
        <mxCell id="zs_Fc-4ZYUaIDNvFuIA1-17" value="&lt;font color=&quot;#1a303f&quot;&gt;AWS Cloud&lt;/font&gt;" style="sketch=0;outlineConnect=0;gradientColor=none;html=1;whiteSpace=wrap;fontSize=12;fontStyle=0;shape=mxgraph.aws4.group;grIcon=mxgraph.aws4.group_aws_cloud;strokeColor=#1A303F;fillColor=none;verticalAlign=top;align=left;spacingLeft=30;fontColor=#858B94;dashed=0;movable=1;resizable=1;rotatable=1;deletable=1;editable=1;locked=0;connectable=1;" parent="1" vertex="1">
          <mxGeometry x="100" y="309" width="1010" height="971" as="geometry" />
        </mxCell>
        <mxCell id="zs_Fc-4ZYUaIDNvFuIA1-20" value="&lt;font color=&quot;#0073bf&quot;&gt;VPC&lt;/font&gt;" style="sketch=0;outlineConnect=0;gradientColor=none;html=1;whiteSpace=wrap;fontSize=12;fontStyle=0;shape=mxgraph.aws4.group;grIcon=mxgraph.aws4.group_vpc;strokeColor=#0073BF;fillColor=none;verticalAlign=top;align=left;spacingLeft=30;fontColor=#B6BABF;dashed=0;" parent="1" vertex="1">
          <mxGeometry x="130" y="330" width="950" height="910" as="geometry" />
        </mxCell>
        <mxCell id="zs_Fc-4ZYUaIDNvFuIA1-34" value="" style="group" parent="1" vertex="1" connectable="0">
          <mxGeometry x="564" y="380" width="230" height="670" as="geometry" />
        </mxCell>
        <mxCell id="zs_Fc-4ZYUaIDNvFuIA1-33" value="&lt;div align=&quot;center&quot;&gt;&lt;div&gt;ECS Clusters&lt;/div&gt;&lt;/div&gt;" style="outlineConnect=0;gradientColor=none;html=1;whiteSpace=wrap;fontSize=12;fontStyle=0;strokeColor=#FF9900;fillColor=none;verticalAlign=top;align=center;fontColor=#FF9900;dashed=0;spacingTop=3;" parent="zs_Fc-4ZYUaIDNvFuIA1-34" vertex="1">
          <mxGeometry width="230" height="670" as="geometry" />
        </mxCell>
        <mxCell id="zs_Fc-4ZYUaIDNvFuIA1-32" value="" style="sketch=0;points=[[0,0,0],[0.25,0,0],[0.5,0,0],[0.75,0,0],[1,0,0],[0,1,0],[0.25,1,0],[0.5,1,0],[0.75,1,0],[1,1,0],[0,0.25,0],[0,0.5,0],[0,0.75,0],[1,0.25,0],[1,0.5,0],[1,0.75,0]];outlineConnect=0;fontColor=#232F3E;gradientColor=#F78E04;gradientDirection=north;fillColor=#D05C17;strokeColor=#ffffff;dashed=0;verticalLabelPosition=bottom;verticalAlign=top;align=center;html=1;fontSize=12;fontStyle=0;aspect=fixed;shape=mxgraph.aws4.resourceIcon;resIcon=mxgraph.aws4.ecs;" parent="zs_Fc-4ZYUaIDNvFuIA1-34" vertex="1">
          <mxGeometry width="30" height="30" as="geometry" />
        </mxCell>
        <mxCell id="zs_Fc-4ZYUaIDNvFuIA1-43" value="ECS Tasks" style="sketch=0;outlineConnect=0;fontColor=#232F3E;gradientColor=none;fillColor=#D45B07;strokeColor=none;dashed=0;verticalLabelPosition=bottom;verticalAlign=top;align=center;html=1;fontSize=12;fontStyle=0;aspect=fixed;pointerEvents=1;shape=mxgraph.aws4.ecs_service;" parent="zs_Fc-4ZYUaIDNvFuIA1-34" vertex="1">
          <mxGeometry x="95.5" y="91" width="39" height="48" as="geometry" />
        </mxCell>
        <mxCell id="zs_Fc-4ZYUaIDNvFuIA1-45" value="" style="group" parent="zs_Fc-4ZYUaIDNvFuIA1-34" vertex="1" connectable="0">
          <mxGeometry x="20" y="40" width="190" height="150" as="geometry" />
        </mxCell>
        <mxCell id="zs_Fc-4ZYUaIDNvFuIA1-41" value="Fargate Service" style="outlineConnect=0;gradientColor=none;html=1;whiteSpace=wrap;fontSize=12;fontStyle=0;strokeColor=#FF9900;fillColor=none;verticalAlign=top;align=center;fontColor=#FF9900;dashed=0;spacingTop=3;" parent="zs_Fc-4ZYUaIDNvFuIA1-45" vertex="1">
          <mxGeometry width="190" height="150" as="geometry" />
        </mxCell>
        <mxCell id="zs_Fc-4ZYUaIDNvFuIA1-42" value="" style="sketch=0;points=[[0,0,0],[0.25,0,0],[0.5,0,0],[0.75,0,0],[1,0,0],[0,1,0],[0.25,1,0],[0.5,1,0],[0.75,1,0],[1,1,0],[0,0.25,0],[0,0.5,0],[0,0.75,0],[1,0.25,0],[1,0.5,0],[1,0.75,0]];outlineConnect=0;fontColor=#232F3E;gradientColor=#F78E04;gradientDirection=north;fillColor=#D05C17;strokeColor=#ffffff;dashed=0;verticalLabelPosition=bottom;verticalAlign=top;align=center;html=1;fontSize=12;fontStyle=0;aspect=fixed;shape=mxgraph.aws4.resourceIcon;resIcon=mxgraph.aws4.fargate;" parent="zs_Fc-4ZYUaIDNvFuIA1-45" vertex="1">
          <mxGeometry width="30" height="30" as="geometry" />
        </mxCell>
        <mxCell id="zs_Fc-4ZYUaIDNvFuIA1-74" value="&lt;font color=&quot;#ff9900&quot;&gt;Service &quot;A&quot;&lt;/font&gt;" style="rounded=0;whiteSpace=wrap;html=1;strokeColor=#FF9900;" parent="zs_Fc-4ZYUaIDNvFuIA1-45" vertex="1">
          <mxGeometry x="36" y="130" width="120" height="20" as="geometry" />
        </mxCell>
        <mxCell id="zs_Fc-4ZYUaIDNvFuIA1-69" value="" style="group" parent="zs_Fc-4ZYUaIDNvFuIA1-34" vertex="1" connectable="0">
          <mxGeometry x="20" y="500" width="190" height="150" as="geometry" />
        </mxCell>
        <mxCell id="zs_Fc-4ZYUaIDNvFuIA1-62" value="Fargate Service" style="outlineConnect=0;gradientColor=none;html=1;whiteSpace=wrap;fontSize=12;fontStyle=0;strokeColor=#FF9900;fillColor=none;verticalAlign=top;align=center;fontColor=#FF9900;dashed=0;spacingTop=3;" parent="zs_Fc-4ZYUaIDNvFuIA1-69" vertex="1">
          <mxGeometry width="190" height="150" as="geometry" />
        </mxCell>
        <mxCell id="zs_Fc-4ZYUaIDNvFuIA1-63" value="" style="sketch=0;points=[[0,0,0],[0.25,0,0],[0.5,0,0],[0.75,0,0],[1,0,0],[0,1,0],[0.25,1,0],[0.5,1,0],[0.75,1,0],[1,1,0],[0,0.25,0],[0,0.5,0],[0,0.75,0],[1,0.25,0],[1,0.5,0],[1,0.75,0]];outlineConnect=0;fontColor=#232F3E;gradientColor=#F78E04;gradientDirection=north;fillColor=#D05C17;strokeColor=#ffffff;dashed=0;verticalLabelPosition=bottom;verticalAlign=top;align=center;html=1;fontSize=12;fontStyle=0;aspect=fixed;shape=mxgraph.aws4.resourceIcon;resIcon=mxgraph.aws4.fargate;" parent="zs_Fc-4ZYUaIDNvFuIA1-69" vertex="1">
          <mxGeometry width="30" height="30" as="geometry" />
        </mxCell>
        <mxCell id="zs_Fc-4ZYUaIDNvFuIA1-64" value="ECS Tasks" style="sketch=0;outlineConnect=0;fontColor=#232F3E;gradientColor=none;fillColor=#D45B07;strokeColor=none;dashed=0;verticalLabelPosition=bottom;verticalAlign=top;align=center;html=1;fontSize=12;fontStyle=0;aspect=fixed;pointerEvents=1;shape=mxgraph.aws4.ecs_service;" parent="zs_Fc-4ZYUaIDNvFuIA1-69" vertex="1">
          <mxGeometry x="75.5" y="51" width="39" height="48" as="geometry" />
        </mxCell>
        <mxCell id="zs_Fc-4ZYUaIDNvFuIA1-76" value="&lt;font color=&quot;#ff9900&quot;&gt;Service &quot;C&quot;&lt;/font&gt;" style="rounded=0;whiteSpace=wrap;html=1;strokeColor=#FF9900;" parent="zs_Fc-4ZYUaIDNvFuIA1-69" vertex="1">
          <mxGeometry x="35" y="130" width="120" height="20" as="geometry" />
        </mxCell>
        <mxCell id="zs_Fc-4ZYUaIDNvFuIA1-57" value="" style="group" parent="zs_Fc-4ZYUaIDNvFuIA1-34" vertex="1" connectable="0">
          <mxGeometry x="20" y="330" width="190" height="150" as="geometry" />
        </mxCell>
        <mxCell id="zs_Fc-4ZYUaIDNvFuIA1-70" value="" style="group" parent="zs_Fc-4ZYUaIDNvFuIA1-57" vertex="1" connectable="0">
          <mxGeometry width="190" height="150" as="geometry" />
        </mxCell>
        <mxCell id="zs_Fc-4ZYUaIDNvFuIA1-58" value="Fargate Service" style="outlineConnect=0;gradientColor=none;html=1;whiteSpace=wrap;fontSize=12;fontStyle=0;strokeColor=#FF9900;fillColor=none;verticalAlign=top;align=center;fontColor=#FF9900;dashed=0;spacingTop=3;" parent="zs_Fc-4ZYUaIDNvFuIA1-70" vertex="1">
          <mxGeometry width="190" height="150" as="geometry" />
        </mxCell>
        <mxCell id="zs_Fc-4ZYUaIDNvFuIA1-59" value="" style="sketch=0;points=[[0,0,0],[0.25,0,0],[0.5,0,0],[0.75,0,0],[1,0,0],[0,1,0],[0.25,1,0],[0.5,1,0],[0.75,1,0],[1,1,0],[0,0.25,0],[0,0.5,0],[0,0.75,0],[1,0.25,0],[1,0.5,0],[1,0.75,0]];outlineConnect=0;fontColor=#232F3E;gradientColor=#F78E04;gradientDirection=north;fillColor=#D05C17;strokeColor=#ffffff;dashed=0;verticalLabelPosition=bottom;verticalAlign=top;align=center;html=1;fontSize=12;fontStyle=0;aspect=fixed;shape=mxgraph.aws4.resourceIcon;resIcon=mxgraph.aws4.fargate;" parent="zs_Fc-4ZYUaIDNvFuIA1-70" vertex="1">
          <mxGeometry width="30" height="30" as="geometry" />
        </mxCell>
        <mxCell id="zs_Fc-4ZYUaIDNvFuIA1-60" value="ECS Tasks" style="sketch=0;outlineConnect=0;fontColor=#232F3E;gradientColor=none;fillColor=#D45B07;strokeColor=none;dashed=0;verticalLabelPosition=bottom;verticalAlign=top;align=center;html=1;fontSize=12;fontStyle=0;aspect=fixed;pointerEvents=1;shape=mxgraph.aws4.ecs_service;" parent="zs_Fc-4ZYUaIDNvFuIA1-70" vertex="1">
          <mxGeometry x="75.5" y="51" width="39" height="48" as="geometry" />
        </mxCell>
        <mxCell id="zs_Fc-4ZYUaIDNvFuIA1-75" value="&lt;font color=&quot;#ff9900&quot;&gt;Service &quot;B&quot;&lt;/font&gt;" style="rounded=0;whiteSpace=wrap;html=1;strokeColor=#FF9900;" parent="zs_Fc-4ZYUaIDNvFuIA1-70" vertex="1">
          <mxGeometry x="35" y="130" width="120" height="20" as="geometry" />
        </mxCell>
        <mxCell id="zs_Fc-4ZYUaIDNvFuIA1-71" style="edgeStyle=orthogonalEdgeStyle;rounded=0;orthogonalLoop=1;jettySize=auto;html=1;endArrow=none;endFill=0;dashed=1;dashPattern=1 2;strokeWidth=4;targetPerimeterSpacing=8;sourcePerimeterSpacing=8;" parent="zs_Fc-4ZYUaIDNvFuIA1-34" source="zs_Fc-4ZYUaIDNvFuIA1-41" target="zs_Fc-4ZYUaIDNvFuIA1-58" edge="1">
          <mxGeometry relative="1" as="geometry" />
        </mxCell>
        <mxCell id="zs_Fc-4ZYUaIDNvFuIA1-2" value="API Gateway" style="sketch=0;points=[[0,0,0],[0.25,0,0],[0.5,0,0],[0.75,0,0],[1,0,0],[0,1,0],[0.25,1,0],[0.5,1,0],[0.75,1,0],[1,1,0],[0,0.25,0],[0,0.5,0],[0,0.75,0],[1,0.25,0],[1,0.5,0],[1,0.75,0]];outlineConnect=0;fontColor=#232F3E;gradientColor=#FF4F8B;gradientDirection=north;fillColor=#BC1356;strokeColor=#ffffff;dashed=0;verticalLabelPosition=bottom;verticalAlign=top;align=center;html=1;fontSize=12;fontStyle=0;aspect=fixed;shape=mxgraph.aws4.resourceIcon;resIcon=mxgraph.aws4.api_gateway;" parent="1" vertex="1">
          <mxGeometry x="200" y="676" width="78" height="78" as="geometry" />
        </mxCell>
        <mxCell id="zs_Fc-4ZYUaIDNvFuIA1-65" style="edgeStyle=orthogonalEdgeStyle;rounded=0;orthogonalLoop=1;jettySize=auto;html=1;entryX=0;entryY=0.5;entryDx=0;entryDy=0;" parent="1" source="zs_Fc-4ZYUaIDNvFuIA1-3" target="zs_Fc-4ZYUaIDNvFuIA1-33" edge="1">
          <mxGeometry relative="1" as="geometry" />
        </mxCell>
        <mxCell id="zs_Fc-4ZYUaIDNvFuIA1-3" value="Application Load Balancer" style="sketch=0;points=[[0,0,0],[0.25,0,0],[0.5,0,0],[0.75,0,0],[1,0,0],[0,1,0],[0.25,1,0],[0.5,1,0],[0.75,1,0],[1,1,0],[0,0.25,0],[0,0.5,0],[0,0.75,0],[1,0.25,0],[1,0.5,0],[1,0.75,0]];outlineConnect=0;fontColor=#232F3E;gradientColor=#F78E04;gradientDirection=north;fillColor=#D05C17;strokeColor=#ffffff;dashed=0;verticalLabelPosition=bottom;verticalAlign=top;align=center;html=1;fontSize=12;fontStyle=0;aspect=fixed;shape=mxgraph.aws4.resourceIcon;resIcon=mxgraph.aws4.elastic_load_balancing;" parent="1" vertex="1">
          <mxGeometry x="347" y="676" width="78" height="78" as="geometry" />
        </mxCell>
        <mxCell id="zs_Fc-4ZYUaIDNvFuIA1-8" value="&#xa;&#xa;&#xa;&#xa;&#xa;&#xa;" style="group" parent="1" vertex="1" connectable="0">
          <mxGeometry x="970" y="680" width="88" height="88" as="geometry" />
        </mxCell>
        <mxCell id="zs_Fc-4ZYUaIDNvFuIA1-5" value="RDS Cluster" style="sketch=0;points=[[0,0,0],[0.25,0,0],[0.5,0,0],[0.75,0,0],[1,0,0],[0,1,0],[0.25,1,0],[0.5,1,0],[0.75,1,0],[1,1,0],[0,0.25,0],[0,0.5,0],[0,0.75,0],[1,0.25,0],[1,0.5,0],[1,0.75,0]];outlineConnect=0;fontColor=#232F3E;gradientColor=#4D72F3;gradientDirection=north;fillColor=#3334B9;strokeColor=#ffffff;dashed=0;verticalLabelPosition=bottom;verticalAlign=top;align=center;html=1;fontSize=12;fontStyle=0;aspect=fixed;shape=mxgraph.aws4.resourceIcon;resIcon=mxgraph.aws4.rds;shadow=1;container=0;" parent="zs_Fc-4ZYUaIDNvFuIA1-8" vertex="1">
          <mxGeometry x="10" y="10" width="78" height="78" as="geometry" />
        </mxCell>
        <mxCell id="zs_Fc-4ZYUaIDNvFuIA1-6" value="" style="sketch=0;points=[[0,0,0],[0.25,0,0],[0.5,0,0],[0.75,0,0],[1,0,0],[0,1,0],[0.25,1,0],[0.5,1,0],[0.75,1,0],[1,1,0],[0,0.25,0],[0,0.5,0],[0,0.75,0],[1,0.25,0],[1,0.5,0],[1,0.75,0]];outlineConnect=0;fontColor=#232F3E;gradientColor=#4D72F3;gradientDirection=north;fillColor=#3334B9;strokeColor=#ffffff;dashed=0;verticalLabelPosition=bottom;verticalAlign=top;align=center;html=1;fontSize=12;fontStyle=0;aspect=fixed;shape=mxgraph.aws4.resourceIcon;resIcon=mxgraph.aws4.rds;shadow=1;container=0;" parent="zs_Fc-4ZYUaIDNvFuIA1-8" vertex="1">
          <mxGeometry width="78" height="78" as="geometry" />
        </mxCell>
        <mxCell id="zs_Fc-4ZYUaIDNvFuIA1-66" style="edgeStyle=orthogonalEdgeStyle;rounded=0;orthogonalLoop=1;jettySize=auto;html=1;entryX=0;entryY=0.5;entryDx=0;entryDy=0;entryPerimeter=0;" parent="1" source="zs_Fc-4ZYUaIDNvFuIA1-41" target="zs_Fc-4ZYUaIDNvFuIA1-6" edge="1">
          <mxGeometry relative="1" as="geometry" />
        </mxCell>
        <mxCell id="zs_Fc-4ZYUaIDNvFuIA1-68" style="edgeStyle=orthogonalEdgeStyle;rounded=0;orthogonalLoop=1;jettySize=auto;html=1;entryX=0;entryY=0.5;entryDx=0;entryDy=0;entryPerimeter=0;" parent="1" source="zs_Fc-4ZYUaIDNvFuIA1-62" target="zs_Fc-4ZYUaIDNvFuIA1-6" edge="1">
          <mxGeometry relative="1" as="geometry" />
        </mxCell>
        <mxCell id="zs_Fc-4ZYUaIDNvFuIA1-72" style="edgeStyle=orthogonalEdgeStyle;rounded=0;orthogonalLoop=1;jettySize=auto;html=1;entryX=0;entryY=0.5;entryDx=0;entryDy=0;entryPerimeter=0;" parent="1" source="zs_Fc-4ZYUaIDNvFuIA1-58" target="zs_Fc-4ZYUaIDNvFuIA1-6" edge="1">
          <mxGeometry relative="1" as="geometry" />
        </mxCell>
        <mxCell id="NcLQLDWYlD9YzWB4cNt9-6" value="" style="group" vertex="1" connectable="0" parent="1">
          <mxGeometry x="-230" y="950" width="50" height="57" as="geometry" />
        </mxCell>
        <mxCell id="NcLQLDWYlD9YzWB4cNt9-3" value="On-Prem DB" style="image;aspect=fixed;perimeter=ellipsePerimeter;html=1;align=center;shadow=0;dashed=0;spacingTop=3;image=img/lib/active_directory/database.svg;" vertex="1" parent="NcLQLDWYlD9YzWB4cNt9-6">
          <mxGeometry y="20" width="50" height="37" as="geometry" />
        </mxCell>
        <mxCell id="NcLQLDWYlD9YzWB4cNt9-4" value="" style="image;aspect=fixed;perimeter=ellipsePerimeter;html=1;align=center;shadow=0;dashed=0;spacingTop=3;image=img/lib/active_directory/database.svg;" vertex="1" parent="NcLQLDWYlD9YzWB4cNt9-6">
          <mxGeometry y="10" width="50" height="37" as="geometry" />
        </mxCell>
        <mxCell id="NcLQLDWYlD9YzWB4cNt9-2" value="" style="image;aspect=fixed;perimeter=ellipsePerimeter;html=1;align=center;shadow=0;dashed=0;spacingTop=3;image=img/lib/active_directory/database.svg;" vertex="1" parent="NcLQLDWYlD9YzWB4cNt9-6">
          <mxGeometry width="50" height="37" as="geometry" />
        </mxCell>
        <mxCell id="NcLQLDWYlD9YzWB4cNt9-30" style="edgeStyle=orthogonalEdgeStyle;rounded=0;orthogonalLoop=1;jettySize=auto;html=1;" edge="1" parent="1" source="NcLQLDWYlD9YzWB4cNt9-8" target="zs_Fc-4ZYUaIDNvFuIA1-5">
          <mxGeometry relative="1" as="geometry" />
        </mxCell>
        <mxCell id="NcLQLDWYlD9YzWB4cNt9-8" value="DBZ Sink" style="sketch=0;points=[[0,0,0],[0.25,0,0],[0.5,0,0],[0.75,0,0],[1,0,0],[0,1,0],[0.25,1,0],[0.5,1,0],[0.75,1,0],[1,1,0],[0,0.25,0],[0,0.5,0],[0,0.75,0],[1,0.25,0],[1,0.5,0],[1,0.75,0]];outlineConnect=0;fontColor=#232F3E;fillColor=#ED7100;strokeColor=#ffffff;dashed=0;verticalLabelPosition=bottom;verticalAlign=top;align=center;html=1;fontSize=12;fontStyle=0;aspect=fixed;shape=mxgraph.aws4.resourceIcon;resIcon=mxgraph.aws4.ecs;" vertex="1" parent="1">
          <mxGeometry x="980" y="1090" width="78" height="78" as="geometry" />
        </mxCell>
        <mxCell id="NcLQLDWYlD9YzWB4cNt9-18" style="edgeStyle=orthogonalEdgeStyle;rounded=0;orthogonalLoop=1;jettySize=auto;html=1;" edge="1" parent="1" source="NcLQLDWYlD9YzWB4cNt9-10" target="zs_Fc-4ZYUaIDNvFuIA1-2">
          <mxGeometry relative="1" as="geometry">
            <Array as="points">
              <mxPoint x="-44.5" y="726" />
            </Array>
          </mxGeometry>
        </mxCell>
        <mxCell id="NcLQLDWYlD9YzWB4cNt9-10" value="portal.paynet.my" style="rounded=0;whiteSpace=wrap;html=1;" vertex="1" parent="1">
          <mxGeometry x="-104.5" y="685" width="120" height="60" as="geometry" />
        </mxCell>
        <mxCell id="NcLQLDWYlD9YzWB4cNt9-29" style="edgeStyle=orthogonalEdgeStyle;rounded=0;orthogonalLoop=1;jettySize=auto;html=1;" edge="1" parent="1" source="NcLQLDWYlD9YzWB4cNt9-11" target="NcLQLDWYlD9YzWB4cNt9-8">
          <mxGeometry relative="1" as="geometry" />
        </mxCell>
        <mxCell id="NcLQLDWYlD9YzWB4cNt9-11" value="AWS MSK" style="sketch=0;outlineConnect=0;fontColor=#232F3E;gradientColor=none;fillColor=#8C4FFF;strokeColor=none;dashed=0;verticalLabelPosition=bottom;verticalAlign=top;align=center;html=1;fontSize=12;fontStyle=0;aspect=fixed;pointerEvents=1;shape=mxgraph.aws4.msk_amazon_msk_connect;" vertex="1" parent="1">
          <mxGeometry x="640" y="1090" width="78" height="77" as="geometry" />
        </mxCell>
        <mxCell id="NcLQLDWYlD9YzWB4cNt9-27" style="edgeStyle=orthogonalEdgeStyle;rounded=0;orthogonalLoop=1;jettySize=auto;html=1;" edge="1" parent="1" source="NcLQLDWYlD9YzWB4cNt9-12" target="NcLQLDWYlD9YzWB4cNt9-11">
          <mxGeometry relative="1" as="geometry">
            <Array as="points">
              <mxPoint x="386" y="1120" />
            </Array>
          </mxGeometry>
        </mxCell>
        <mxCell id="NcLQLDWYlD9YzWB4cNt9-12" value="DBZ Source" style="sketch=0;points=[[0,0,0],[0.25,0,0],[0.5,0,0],[0.75,0,0],[1,0,0],[0,1,0],[0.25,1,0],[0.5,1,0],[0.75,1,0],[1,1,0],[0,0.25,0],[0,0.5,0],[0,0.75,0],[1,0.25,0],[1,0.5,0],[1,0.75,0]];outlineConnect=0;fontColor=#232F3E;fillColor=#ED7100;strokeColor=#ffffff;dashed=0;verticalLabelPosition=bottom;verticalAlign=top;align=center;html=1;fontSize=12;fontStyle=0;aspect=fixed;shape=mxgraph.aws4.resourceIcon;resIcon=mxgraph.aws4.ecs;" vertex="1" parent="1">
          <mxGeometry x="347" y="949.5" width="78" height="78" as="geometry" />
        </mxCell>
        <mxCell id="NcLQLDWYlD9YzWB4cNt9-14" style="edgeStyle=orthogonalEdgeStyle;rounded=0;orthogonalLoop=1;jettySize=auto;html=1;entryX=0;entryY=0.5;entryDx=0;entryDy=0;" edge="1" parent="1" source="NcLQLDWYlD9YzWB4cNt9-13" target="NcLQLDWYlD9YzWB4cNt9-10">
          <mxGeometry relative="1" as="geometry" />
        </mxCell>
        <mxCell id="NcLQLDWYlD9YzWB4cNt9-13" value="" style="shape=actor;whiteSpace=wrap;html=1;" vertex="1" parent="1">
          <mxGeometry x="-230.5" y="685" width="40" height="60" as="geometry" />
        </mxCell>
        <mxCell id="NcLQLDWYlD9YzWB4cNt9-20" style="edgeStyle=orthogonalEdgeStyle;rounded=0;orthogonalLoop=1;jettySize=auto;html=1;" edge="1" parent="1" source="NcLQLDWYlD9YzWB4cNt9-16" target="zs_Fc-4ZYUaIDNvFuIA1-2">
          <mxGeometry relative="1" as="geometry" />
        </mxCell>
        <mxCell id="NcLQLDWYlD9YzWB4cNt9-21" value="API" style="edgeLabel;html=1;align=center;verticalAlign=middle;resizable=0;points=[];" vertex="1" connectable="0" parent="NcLQLDWYlD9YzWB4cNt9-20">
          <mxGeometry x="-0.3122" relative="1" as="geometry">
            <mxPoint as="offset" />
          </mxGeometry>
        </mxCell>
        <mxCell id="NcLQLDWYlD9YzWB4cNt9-16" value="Financial Institution" style="shape=mxgraph.signs.travel.bank;html=1;pointerEvents=1;fillColor=#000000;strokeColor=none;verticalLabelPosition=bottom;verticalAlign=top;align=center;" vertex="1" parent="1">
          <mxGeometry x="-260" y="800" width="99" height="86" as="geometry" />
        </mxCell>
        <mxCell id="NcLQLDWYlD9YzWB4cNt9-22" style="edgeStyle=orthogonalEdgeStyle;rounded=0;orthogonalLoop=1;jettySize=auto;html=1;entryX=0;entryY=0.5;entryDx=0;entryDy=0;entryPerimeter=0;" edge="1" parent="1" source="zs_Fc-4ZYUaIDNvFuIA1-2" target="zs_Fc-4ZYUaIDNvFuIA1-3">
          <mxGeometry relative="1" as="geometry" />
        </mxCell>
        <mxCell id="NcLQLDWYlD9YzWB4cNt9-26" style="edgeStyle=orthogonalEdgeStyle;rounded=0;orthogonalLoop=1;jettySize=auto;html=1;entryX=0;entryY=0.5;entryDx=0;entryDy=0;entryPerimeter=0;" edge="1" parent="1" source="NcLQLDWYlD9YzWB4cNt9-3" target="NcLQLDWYlD9YzWB4cNt9-12">
          <mxGeometry relative="1" as="geometry" />
        </mxCell>
        <mxCell id="NcLQLDWYlD9YzWB4cNt9-28" value="CDC" style="edgeLabel;html=1;align=center;verticalAlign=middle;resizable=0;points=[];" vertex="1" connectable="0" parent="NcLQLDWYlD9YzWB4cNt9-26">
          <mxGeometry x="-0.2609" y="1" relative="1" as="geometry">
            <mxPoint x="-1" as="offset" />
          </mxGeometry>
        </mxCell>
      </root>
    </mxGraphModel>
  </diagram>
  <diagram id="j8xk5e3IgWkEWwsN8AbJ" name="deployment-pipeline">
    <mxGraphModel dx="1026" dy="659" grid="1" gridSize="10" guides="1" tooltips="1" connect="1" arrows="1" fold="1" page="1" pageScale="1" pageWidth="850" pageHeight="1100" math="0" shadow="0">
      <root>
        <mxCell id="0" />
        <mxCell id="1" parent="0" />
        <mxCell id="jktgj87msHmXNIKa9a7T-5" value="&lt;div&gt;Prod&lt;/div&gt;&lt;div&gt;Deployment&lt;br&gt;&lt;/div&gt;" style="rounded=0;whiteSpace=wrap;html=1;" vertex="1" parent="1">
          <mxGeometry x="420" y="120" width="120" height="80" as="geometry" />
        </mxCell>
        <mxCell id="jktgj87msHmXNIKa9a7T-1" value="&lt;div&gt;Local&lt;/div&gt;&lt;div&gt;Development&lt;br&gt;&lt;/div&gt;" style="shape=step;perimeter=stepPerimeter;whiteSpace=wrap;html=1;fixedSize=1;" vertex="1" parent="1">
          <mxGeometry x="120" y="120" width="120" height="80" as="geometry" />
        </mxCell>
        <mxCell id="jktgj87msHmXNIKa9a7T-2" value="&lt;div&gt;SIT&lt;/div&gt;&lt;div&gt;Deployment&lt;br&gt;&lt;/div&gt;" style="shape=step;perimeter=stepPerimeter;whiteSpace=wrap;html=1;fixedSize=1;" vertex="1" parent="1">
          <mxGeometry x="220" y="120" width="120" height="80" as="geometry" />
        </mxCell>
        <mxCell id="jktgj87msHmXNIKa9a7T-3" value="&lt;div&gt;UAT&lt;/div&gt;&lt;div&gt;Deployment&lt;br&gt;&lt;/div&gt;" style="shape=step;perimeter=stepPerimeter;whiteSpace=wrap;html=1;fixedSize=1;" vertex="1" parent="1">
          <mxGeometry x="320" y="120" width="120" height="80" as="geometry" />
        </mxCell>
      </root>
    </mxGraphModel>
  </diagram>
</mxfile>
